<svg xmlns="http://www.w3.org/2000/svg" viewBox="0 0 329.25 332">
  <g>
    <path d="M107.7,158.66a57.59,57.59,0,0,1,113.85,0h92.84c-3.8-80-69.52-144-149.77-144s-146,63.94-149.76,144Z" fill="#f3b919"/>
    <path d="M329.25,165.89C329.19,74.41,255.36,0,164.62,0S0,74.47,0,166a166,166,0,0,0,29.36,94.65,7.34,7.34,0,0,0,10.21,1.88,7.22,7.22,0,0,0,1.27-1.12,7.34,7.34,0,0,0,.61-9.09,151.25,151.25,0,0,1-26.6-79h92.5a57.58,57.58,0,0,0,114.55,0h92.49c-3.8,80-69.52,144-149.77,144a149.13,149.13,0,0,1-71.81-18.44,7.34,7.34,0,1,0-7.09,12.85A163.75,163.75,0,0,0,164.62,332c90.78,0,164.63-74.47,164.63-166Zm-207.53,1.49a42.91,42.91,0,1,1,42.9,42.9A43,43,0,0,1,121.72,167.38Zm42.9-152.7c80.25,0,146,63.94,149.77,144H221.55a57.59,57.59,0,0,0-113.85,0H14.86C18.66,78.62,84.38,14.68,164.62,14.68Z" fill="#fff"/>
    <path d="M70.52,283.82c-3.43-2.8-6.8-5.8-10-8.9a7.34,7.34,0,0,0-10.24,10.52c3.51,3.41,7.19,6.69,11,9.76a7.3,7.3,0,0,0,4.63,1.65,7.34,7.34,0,0,0,4.64-13Z" fill="#fff"/>
    <path d="M193.83,167.38a29.21,29.21,0,1,0-29.21,29.21A29.24,29.24,0,0,0,193.83,167.38Zm-43.74,0a14.53,14.53,0,1,1,14.53,14.53A14.55,14.55,0,0,1,150.09,167.38Z" fill="#fff"/>
  </g>
</svg>
